<?xml version="1.0" encoding="UTF-8" standalone="no"?>
<!DOCTYPE svg PUBLIC "-//W3C//DTD SVG 1.1//EN"
 "http://www.w3.org/Graphics/SVG/1.1/DTD/svg11.dtd">
<!-- Generated by graphviz version 2.43.0 (0)
 -->
<!-- Title: AWS Architecture Diagram Pages: 1 -->
<svg width="2578pt" height="1442pt"
 viewBox="0.00 0.00 928.00 519.00" xmlns="http://www.w3.org/2000/svg" xmlns:xlink="http://www.w3.org/1999/xlink">
<g id="graph0" class="graph" transform="scale(0.36 0.36) rotate(0) translate(144 375)">
<title>AWS Architecture Diagram</title>
<polygon fill="white" stroke="transparent" points="-144,144 -144,-375 784,-375 784,144 -144,144"/>
<text text-anchor="middle" x="320" y="-9" font-family="Sans-Serif" font-size="15.00" fill="#2d3436">AWS Architecture Diagram</text>
<g id="clust1" class="cluster">
<title>cluster_Monitoring</title>
<path fill="#e5f5fd" stroke="#aeb6be" d="M20,-33C20,-33 164,-33 164,-33 170,-33 176,-39 176,-45 176,-45 176,-145 176,-145 176,-151 170,-157 164,-157 164,-157 20,-157 20,-157 14,-157 8,-151 8,-145 8,-145 8,-45 8,-45 8,-39 14,-33 20,-33"/>
<text text-anchor="middle" x="48" y="-143.4" font-family="Sans-Serif" font-size="12.00" fill="#2d3436">Monitoring</text>
</g>
<g id="clust2" class="cluster">
<title>cluster_Compute</title>
<path fill="#e5f5fd" stroke="#aeb6be" d="M455,-91C455,-91 502,-91 502,-91 508,-91 514,-97 514,-103 514,-103 514,-211 514,-211 514,-217 508,-223 502,-223 502,-223 455,-223 455,-223 449,-223 443,-217 443,-211 443,-211 443,-103 443,-103 443,-97 449,-91 455,-91"/>
<text text-anchor="middle" x="478.5" y="-209.4" font-family="Sans-Serif" font-size="12.00" fill="#2d3436">Compute</text>
</g>
<g id="clust3" class="cluster">
<title>cluster_Security</title>
<path fill="#e5f5fd" stroke="#aeb6be" d="M196,-33C196,-33 398,-33 398,-33 404,-33 410,-39 410,-45 410,-45 410,-145 410,-145 410,-151 404,-157 398,-157 398,-157 196,-157 196,-157 190,-157 184,-151 184,-145 184,-145 184,-45 184,-45 184,-39 190,-33 196,-33"/>
<text text-anchor="middle" x="216.5" y="-143.4" font-family="Sans-Serif" font-size="12.00" fill="#2d3436">Security</text>
</g>
<g id="clust4" class="cluster">
<title>cluster_Storage</title>
<path fill="#e5f5fd" stroke="#aeb6be" d="M534,-33C534,-33 620,-33 620,-33 626,-33 632,-39 632,-45 632,-45 632,-145 632,-145 632,-151 626,-157 620,-157 620,-157 534,-157 534,-157 528,-157 522,-151 522,-145 522,-145 522,-45 522,-45 522,-39 528,-33 534,-33"/>
<text text-anchor="middle" x="554" y="-143.4" font-family="Sans-Serif" font-size="12.00" fill="#2d3436">Storage</text>
</g>
<!-- 68d4dd37ef6a4dd897295c746c10a5a1 -->
<g id="node1" class="node">
<title>68d4dd37ef6a4dd897295c746c10a5a1</title>
<path fill="none" stroke="black" d="M158.33,-128C158.33,-128 141.67,-128 141.67,-128 136.83,-128 132,-123.17 132,-118.33 132,-118.33 132,-108.67 132,-108.67 132,-103.83 136.83,-99 141.67,-99 141.67,-99 158.33,-99 158.33,-99 163.17,-99 168,-103.83 168,-108.67 168,-108.67 168,-118.33 168,-118.33 168,-123.17 163.17,-128 158.33,-128"/>
<image xlink:href="/home/codespace/.python/current/lib/python3.12/site-packages/resources/aws/management/cloudtrail.png" width="29px" height="29px" preserveAspectRatio="xMinYMin meet" x="135.5" y="-128"/>
<text text-anchor="middle" x="150" y="-127" font-family="Sans-Serif" font-size="20.00" fill="#2d3436">[Master_Trail]</text>
<text text-anchor="middle" x="150" y="-105" font-family="Sans-Serif" font-size="20.00" fill="#2d3436">(aws_cloudtrail)</text>
</g>
<!-- 0ee1204edd6a4fb2aacac464b751786f -->
<g id="node2" class="node">
<title>0ee1204edd6a4fb2aacac464b751786f</title>
<path fill="none" stroke="black" d="M158.33,-70C158.33,-70 141.67,-70 141.67,-70 136.83,-70 132,-65.17 132,-60.33 132,-60.33 132,-50.67 132,-50.67 132,-45.83 136.83,-41 141.67,-41 141.67,-41 158.33,-41 158.33,-41 163.17,-41 168,-45.83 168,-50.67 168,-50.67 168,-60.33 168,-60.33 168,-65.17 163.17,-70 158.33,-70"/>
<image xlink:href="/home/codespace/.python/current/lib/python3.12/site-packages/resources/aws/management/cloudwatch.png" width="29px" height="29px" preserveAspectRatio="xMinYMin meet" x="135.5" y="-70"/>
<text text-anchor="middle" x="150" y="-69" font-family="Sans-Serif" font-size="20.00" fill="#2d3436">[Cloudtrail_log_group]</text>
<text text-anchor="middle" x="150" y="-47" font-family="Sans-Serif" font-size="20.00" fill="#2d3436">(aws_cloudwatch_log_group)</text>
</g>
<!-- 68d4dd37ef6a4dd897295c746c10a5a1&#45;&gt;0ee1204edd6a4fb2aacac464b751786f -->
<g id="edge1" class="edge">
<title>68d4dd37ef6a4dd897295c746c10a5a1&#45;&gt;0ee1204edd6a4fb2aacac464b751786f</title>
<g id="a_edge1"><a xlink:title="Dependency">
<path fill="none" stroke="black" stroke-width="5" d="M144,-97.86C144,-97.86 144,-70.33 144,-70.33"/>
<polygon fill="black" stroke="black" stroke-width="5" points="143.56,-97.86 144,-98.86 144.44,-97.86 143.56,-97.86"/>
</a>
</g>
<text text-anchor="middle" x="128" y="-87.7" font-family="Sans-Serif" font-size="13.00">Uses</text>
</g>
<!-- fed8f1cd44c9437291dbc290471a05a5 -->
<g id="node13" class="node">
<title>fed8f1cd44c9437291dbc290471a05a5</title>
<path fill="none" stroke="black" d="M218.33,-70C218.33,-70 201.67,-70 201.67,-70 196.83,-70 192,-65.17 192,-60.33 192,-60.33 192,-50.67 192,-50.67 192,-45.83 196.83,-41 201.67,-41 201.67,-41 218.33,-41 218.33,-41 223.17,-41 228,-45.83 228,-50.67 228,-50.67 228,-60.33 228,-60.33 228,-65.17 223.17,-70 218.33,-70"/>
<image xlink:href="/home/codespace/.python/current/lib/python3.12/site-packages/resources/aws/security/identity-and-access-management-iam.png" width="29px" height="29px" preserveAspectRatio="xMinYMin meet" x="195.5" y="-70"/>
<text text-anchor="middle" x="210" y="-69" font-family="Sans-Serif" font-size="20.00" fill="#2d3436">[cloudwatch_logs_role]</text>
<text text-anchor="middle" x="210" y="-47" font-family="Sans-Serif" font-size="20.00" fill="#2d3436">(aws_iam_role)</text>
</g>
<!-- 68d4dd37ef6a4dd897295c746c10a5a1&#45;&gt;fed8f1cd44c9437291dbc290471a05a5 -->
<g id="edge3" class="edge">
<title>68d4dd37ef6a4dd897295c746c10a5a1&#45;&gt;fed8f1cd44c9437291dbc290471a05a5</title>
<g id="a_edge3"><a xlink:title="Dependency">
<path fill="none" stroke="black" stroke-width="5" d="M169.14,-113C169.14,-113 180,-113 180,-113 180,-113 180,-55 180,-55 180,-55 185.54,-55 191.86,-55"/>
<polygon fill="black" stroke="black" stroke-width="5" points="169.14,-112.56 168.14,-113 169.14,-113.44 169.14,-112.56"/>
</a>
</g>
<text text-anchor="middle" x="164" y="-87.1" font-family="Sans-Serif" font-size="13.00">Uses</text>
</g>
<!-- 8f7bda79a8534ead98c57d63ca88b872 -->
<g id="node18" class="node">
<title>8f7bda79a8534ead98c57d63ca88b872</title>
<path fill="none" stroke="black" d="M556.33,-70C556.33,-70 539.67,-70 539.67,-70 534.83,-70 530,-65.17 530,-60.33 530,-60.33 530,-50.67 530,-50.67 530,-45.83 534.83,-41 539.67,-41 539.67,-41 556.33,-41 556.33,-41 561.17,-41 566,-45.83 566,-50.67 566,-50.67 566,-60.33 566,-60.33 566,-65.17 561.17,-70 556.33,-70"/>
<image xlink:href="/home/codespace/.python/current/lib/python3.12/site-packages/resources/aws/storage/simple-storage-service-s3.png" width="29px" height="29px" preserveAspectRatio="xMinYMin meet" x="533.5" y="-70"/>
<text text-anchor="middle" x="548" y="-69" font-family="Sans-Serif" font-size="20.00" fill="#2d3436">[cloudtrail_bucket]</text>
<text text-anchor="middle" x="548" y="-47" font-family="Sans-Serif" font-size="20.00" fill="#2d3436">(aws_s3_bucket)</text>
</g>
<!-- 68d4dd37ef6a4dd897295c746c10a5a1&#45;&gt;8f7bda79a8534ead98c57d63ca88b872 -->
<g id="edge2" class="edge">
<title>68d4dd37ef6a4dd897295c746c10a5a1&#45;&gt;8f7bda79a8534ead98c57d63ca88b872</title>
<g id="a_edge2"><a xlink:title="Dependency">
<path fill="none" stroke="black" stroke-width="5" d="M156,-97.65C156,-97.65 156,-77 156,-77 156,-77 542,-77 542,-77 542,-77 542,-73.98 542,-70.2"/>
<polygon fill="black" stroke="black" stroke-width="5" points="155.56,-97.65 156,-98.65 156.44,-97.65 155.56,-97.65"/>
</a>
</g>
<text text-anchor="middle" x="326.07" y="-80.6" font-family="Sans-Serif" font-size="13.00">Uses</text>
</g>
<!-- 52515029bfeb48fe9ebe4414bc1a8407 -->
<g id="node3" class="node">
<title>52515029bfeb48fe9ebe4414bc1a8407</title>
<path fill="none" stroke="black" d="M42.33,-128C42.33,-128 25.67,-128 25.67,-128 20.83,-128 16,-123.17 16,-118.33 16,-118.33 16,-108.67 16,-108.67 16,-103.83 20.83,-99 25.67,-99 25.67,-99 42.33,-99 42.33,-99 47.17,-99 52,-103.83 52,-108.67 52,-108.67 52,-118.33 52,-118.33 52,-123.17 47.17,-128 42.33,-128"/>
<image xlink:href="/home/codespace/.python/current/lib/python3.12/site-packages/resources/aws/integration/simple-notification-service-sns.png" width="29px" height="29px" preserveAspectRatio="xMinYMin meet" x="19.5" y="-128"/>
<text text-anchor="middle" x="34" y="-127" font-family="Sans-Serif" font-size="20.00" fill="#2d3436">[user_creation_email_subscription]</text>
<text text-anchor="middle" x="34" y="-105" font-family="Sans-Serif" font-size="20.00" fill="#2d3436">(aws_sns_topic_subscription)</text>
</g>
<!-- 73ad0b352bb74028ae7d961e0644f3de -->
<g id="node6" class="node">
<title>73ad0b352bb74028ae7d961e0644f3de</title>
<path fill="none" stroke="black" d="M100.33,-70C100.33,-70 83.67,-70 83.67,-70 78.83,-70 74,-65.17 74,-60.33 74,-60.33 74,-50.67 74,-50.67 74,-45.83 78.83,-41 83.67,-41 83.67,-41 100.33,-41 100.33,-41 105.17,-41 110,-45.83 110,-50.67 110,-50.67 110,-60.33 110,-60.33 110,-65.17 105.17,-70 100.33,-70"/>
<image xlink:href="/home/codespace/.python/current/lib/python3.12/site-packages/resources/aws/integration/simple-notification-service-sns.png" width="29px" height="29px" preserveAspectRatio="xMinYMin meet" x="77.5" y="-70"/>
<text text-anchor="middle" x="92" y="-69" font-family="Sans-Serif" font-size="20.00" fill="#2d3436">[user_creation_topic]</text>
<text text-anchor="middle" x="92" y="-47" font-family="Sans-Serif" font-size="20.00" fill="#2d3436">(aws_sns_topic)</text>
</g>
<!-- 52515029bfeb48fe9ebe4414bc1a8407&#45;&gt;73ad0b352bb74028ae7d961e0644f3de -->
<g id="edge24" class="edge">
<title>52515029bfeb48fe9ebe4414bc1a8407&#45;&gt;73ad0b352bb74028ae7d961e0644f3de</title>
<g id="a_edge24"><a xlink:title="Dependency">
<path fill="none" stroke="black" stroke-width="5" d="M53.24,-118C53.24,-118 66.67,-118 66.67,-118 66.67,-118 66.67,-60 66.67,-60 66.67,-60 69.8,-60 73.86,-60"/>
<polygon fill="black" stroke="black" stroke-width="5" points="53.24,-117.56 52.24,-118 53.24,-118.44 53.24,-117.56"/>
</a>
</g>
<text text-anchor="middle" x="50.67" y="-81.72" font-family="Sans-Serif" font-size="13.00">Uses</text>
</g>
<!-- 52817acf53ae482d99f2911086bd43bf -->
<g id="node4" class="node">
<title>52817acf53ae482d99f2911086bd43bf</title>
<path fill="none" stroke="black" d="M42.33,-70C42.33,-70 25.67,-70 25.67,-70 20.83,-70 16,-65.17 16,-60.33 16,-60.33 16,-50.67 16,-50.67 16,-45.83 20.83,-41 25.67,-41 25.67,-41 42.33,-41 42.33,-41 47.17,-41 52,-45.83 52,-50.67 52,-50.67 52,-60.33 52,-60.33 52,-65.17 47.17,-70 42.33,-70"/>
<image xlink:href="/home/codespace/.python/current/lib/python3.12/site-packages/resources/aws/management/cloudwatch.png" width="29px" height="29px" preserveAspectRatio="xMinYMin meet" x="19.5" y="-70"/>
<text text-anchor="middle" x="34" y="-69" font-family="Sans-Serif" font-size="20.00" fill="#2d3436">[usercreationnotificationrule]</text>
<text text-anchor="middle" x="34" y="-47" font-family="Sans-Serif" font-size="20.00" fill="#2d3436">(aws_cloudwatch_event_rule)</text>
</g>
<!-- 519443bdf72544ef85cf3503042fb88d -->
<g id="node5" class="node">
<title>519443bdf72544ef85cf3503042fb88d</title>
<path fill="none" stroke="black" d="M100.33,-128C100.33,-128 83.67,-128 83.67,-128 78.83,-128 74,-123.17 74,-118.33 74,-118.33 74,-108.67 74,-108.67 74,-103.83 78.83,-99 83.67,-99 83.67,-99 100.33,-99 100.33,-99 105.17,-99 110,-103.83 110,-108.67 110,-108.67 110,-118.33 110,-118.33 110,-123.17 105.17,-128 100.33,-128"/>
<image xlink:href="/home/codespace/.python/current/lib/python3.12/site-packages/resources/aws/management/cloudwatch.png" width="29px" height="29px" preserveAspectRatio="xMinYMin meet" x="77.5" y="-128"/>
<text text-anchor="middle" x="92" y="-127" font-family="Sans-Serif" font-size="20.00" fill="#2d3436">[lambda_target]</text>
<text text-anchor="middle" x="92" y="-105" font-family="Sans-Serif" font-size="20.00" fill="#2d3436">(aws_cloudwatch_event_target)</text>
</g>
<!-- 519443bdf72544ef85cf3503042fb88d&#45;&gt;52817acf53ae482d99f2911086bd43bf -->
<g id="edge7" class="edge">
<title>519443bdf72544ef85cf3503042fb88d&#45;&gt;52817acf53ae482d99f2911086bd43bf</title>
<g id="a_edge7"><a xlink:title="Dependency">
<path fill="none" stroke="black" stroke-width="5" d="M72.76,-108C72.76,-108 59.33,-108 59.33,-108 59.33,-108 59.33,-50 59.33,-50 59.33,-50 56.2,-50 52.14,-50"/>
<polygon fill="black" stroke="black" stroke-width="5" points="72.76,-108.44 73.76,-108 72.76,-107.56 72.76,-108.44"/>
</a>
</g>
<text text-anchor="middle" x="75.33" y="-71.72" font-family="Sans-Serif" font-size="13.00">Uses</text>
</g>
<!-- 519443bdf72544ef85cf3503042fb88d&#45;&gt;73ad0b352bb74028ae7d961e0644f3de -->
<g id="edge6" class="edge">
<title>519443bdf72544ef85cf3503042fb88d&#45;&gt;73ad0b352bb74028ae7d961e0644f3de</title>
<g id="a_edge6"><a xlink:title="Dependency">
<path fill="none" stroke="black" stroke-width="5" d="M80,-97.86C80,-97.86 80,-70.33 80,-70.33"/>
<polygon fill="black" stroke="black" stroke-width="5" points="79.56,-97.86 80,-98.86 80.44,-97.86 79.56,-97.86"/>
</a>
</g>
<text text-anchor="middle" x="96" y="-87.7" font-family="Sans-Serif" font-size="13.00">Uses</text>
</g>
<!-- f703427c3c33477ebf55202046e1ed95 -->
<g id="node8" class="node">
<title>f703427c3c33477ebf55202046e1ed95</title>
<path fill="none" stroke="black" d="M496.33,-128C496.33,-128 479.67,-128 479.67,-128 474.83,-128 470,-123.17 470,-118.33 470,-118.33 470,-108.67 470,-108.67 470,-103.83 474.83,-99 479.67,-99 479.67,-99 496.33,-99 496.33,-99 501.17,-99 506,-103.83 506,-108.67 506,-108.67 506,-118.33 506,-118.33 506,-123.17 501.17,-128 496.33,-128"/>
<image xlink:href="/home/codespace/.python/current/lib/python3.12/site-packages/resources/aws/compute/lambda.png" width="29px" height="29px" preserveAspectRatio="xMinYMin meet" x="473.5" y="-128"/>
<text text-anchor="middle" x="488" y="-127" font-family="Sans-Serif" font-size="20.00" fill="#2d3436">[iam_user_notification]</text>
<text text-anchor="middle" x="488" y="-105" font-family="Sans-Serif" font-size="20.00" fill="#2d3436">(aws_lambda_function)</text>
</g>
<!-- 519443bdf72544ef85cf3503042fb88d&#45;&gt;f703427c3c33477ebf55202046e1ed95 -->
<g id="edge4" class="edge">
<title>519443bdf72544ef85cf3503042fb88d&#45;&gt;f703427c3c33477ebf55202046e1ed95</title>
<g id="a_edge4"><a xlink:title="Dependency">
<path fill="none" stroke="black" stroke-width="5" d="M92,-129.23C92,-129.23 92,-146 92,-146 92,-146 475.67,-146 475.67,-146 475.67,-146 475.67,-136.83 475.67,-128.23"/>
<polygon fill="black" stroke="black" stroke-width="5" points="92.44,-129.23 92,-128.23 91.56,-129.23 92.44,-129.23"/>
</a>
</g>
<text text-anchor="middle" x="268.33" y="-149.6" font-family="Sans-Serif" font-size="13.00">Uses</text>
</g>
<!-- 07125ee630fe4e5a880e192c9a69d83e -->
<g id="node12" class="node">
<title>07125ee630fe4e5a880e192c9a69d83e</title>
<path fill="none" stroke="black" d="M392.33,-70C392.33,-70 375.67,-70 375.67,-70 370.83,-70 366,-65.17 366,-60.33 366,-60.33 366,-50.67 366,-50.67 366,-45.83 370.83,-41 375.67,-41 375.67,-41 392.33,-41 392.33,-41 397.17,-41 402,-45.83 402,-50.67 402,-50.67 402,-60.33 402,-60.33 402,-65.17 397.17,-70 392.33,-70"/>
<image xlink:href="/home/codespace/.python/current/lib/python3.12/site-packages/resources/aws/security/identity-and-access-management-iam.png" width="29px" height="29px" preserveAspectRatio="xMinYMin meet" x="369.5" y="-70"/>
<text text-anchor="middle" x="384" y="-69" font-family="Sans-Serif" font-size="20.00" fill="#2d3436">[lambda_execution_role]</text>
<text text-anchor="middle" x="384" y="-47" font-family="Sans-Serif" font-size="20.00" fill="#2d3436">(aws_iam_role)</text>
</g>
<!-- 519443bdf72544ef85cf3503042fb88d&#45;&gt;07125ee630fe4e5a880e192c9a69d83e -->
<g id="edge5" class="edge">
<title>519443bdf72544ef85cf3503042fb88d&#45;&gt;07125ee630fe4e5a880e192c9a69d83e</title>
<g id="a_edge5"><a xlink:title="Dependency">
<path fill="none" stroke="black" stroke-width="5" d="M98,-97.88C98,-97.88 98,-73 98,-73 98,-73 378,-73 378,-73 378,-73 378,-71.91 378,-70.27"/>
<polygon fill="black" stroke="black" stroke-width="5" points="97.56,-97.88 98,-98.88 98.44,-97.88 97.56,-97.88"/>
</a>
</g>
<text text-anchor="middle" x="242.93" y="-76.6" font-family="Sans-Serif" font-size="13.00">Uses</text>
</g>
<!-- cbb9d1e978fd4b25bf79cd2ad4a6825f -->
<g id="node17" class="node">
<title>cbb9d1e978fd4b25bf79cd2ad4a6825f</title>
<path fill="none" stroke="black" d="M614.33,-70C614.33,-70 597.67,-70 597.67,-70 592.83,-70 588,-65.17 588,-60.33 588,-60.33 588,-50.67 588,-50.67 588,-45.83 592.83,-41 597.67,-41 597.67,-41 614.33,-41 614.33,-41 619.17,-41 624,-45.83 624,-50.67 624,-50.67 624,-60.33 624,-60.33 624,-65.17 619.17,-70 614.33,-70"/>
<image xlink:href="/home/codespace/.python/current/lib/python3.12/site-packages/resources/aws/storage/simple-storage-service-s3.png" width="29px" height="29px" preserveAspectRatio="xMinYMin meet" x="591.5" y="-70"/>
<text text-anchor="middle" x="606" y="-69" font-family="Sans-Serif" font-size="20.00" fill="#2d3436">[lambda_bucket]</text>
<text text-anchor="middle" x="606" y="-47" font-family="Sans-Serif" font-size="20.00" fill="#2d3436">(aws_s3_bucket)</text>
</g>
<!-- 519443bdf72544ef85cf3503042fb88d&#45;&gt;cbb9d1e978fd4b25bf79cd2ad4a6825f -->
<g id="edge8" class="edge">
<title>519443bdf72544ef85cf3503042fb88d&#45;&gt;cbb9d1e978fd4b25bf79cd2ad4a6825f</title>
<g id="a_edge8"><a xlink:title="Dependency">
<path fill="none" stroke="black" stroke-width="5" d="M104,-97.71C104,-97.71 104,-80 104,-80 104,-80 597,-80 597,-80 597,-80 597,-75.31 597,-70.03"/>
<polygon fill="black" stroke="black" stroke-width="5" points="103.56,-97.71 104,-98.71 104.44,-97.71 103.56,-97.71"/>
</a>
</g>
<text text-anchor="middle" x="362.63" y="-83.6" font-family="Sans-Serif" font-size="13.00">Uses</text>
</g>
<!-- 7f51c2e99a974b5aa81b30e326e7237e -->
<g id="node7" class="node">
<title>7f51c2e99a974b5aa81b30e326e7237e</title>
<path fill="none" stroke="black" d="M477.33,-194C477.33,-194 460.67,-194 460.67,-194 455.83,-194 451,-189.17 451,-184.33 451,-184.33 451,-174.67 451,-174.67 451,-169.83 455.83,-165 460.67,-165 460.67,-165 477.33,-165 477.33,-165 482.17,-165 487,-169.83 487,-174.67 487,-174.67 487,-184.33 487,-184.33 487,-189.17 482.17,-194 477.33,-194"/>
<image xlink:href="/home/codespace/.python/current/lib/python3.12/site-packages/resources/aws/compute/lambda.png" width="29px" height="29px" preserveAspectRatio="xMinYMin meet" x="454.5" y="-194"/>
<text text-anchor="middle" x="469" y="-193" font-family="Sans-Serif" font-size="20.00" fill="#2d3436">[allow_eventbridge]</text>
<text text-anchor="middle" x="469" y="-171" font-family="Sans-Serif" font-size="20.00" fill="#2d3436">(aws_lambda_permission)</text>
</g>
<!-- 7f51c2e99a974b5aa81b30e326e7237e&#45;&gt;52817acf53ae482d99f2911086bd43bf -->
<g id="edge12" class="edge">
<title>7f51c2e99a974b5aa81b30e326e7237e&#45;&gt;52817acf53ae482d99f2911086bd43bf</title>
<g id="a_edge12"><a xlink:title="Dependency">
<path fill="none" stroke="black" stroke-width="5" d="M455.75,-163.78C455.75,-163.78 455.75,-95 455.75,-95 455.75,-95 34,-95 34,-95 34,-95 34,-81.44 34,-70.21"/>
<polygon fill="black" stroke="black" stroke-width="5" points="455.31,-163.78 455.75,-164.78 456.19,-163.78 455.31,-163.78"/>
</a>
</g>
<text text-anchor="middle" x="282.87" y="-84.6" font-family="Sans-Serif" font-size="13.00">Uses</text>
</g>
<!-- 7f51c2e99a974b5aa81b30e326e7237e&#45;&gt;73ad0b352bb74028ae7d961e0644f3de -->
<g id="edge11" class="edge">
<title>7f51c2e99a974b5aa81b30e326e7237e&#45;&gt;73ad0b352bb74028ae7d961e0644f3de</title>
<g id="a_edge11"><a xlink:title="Dependency">
<path fill="none" stroke="black" stroke-width="5" d="M460.5,-163.89C460.5,-163.89 460.5,-91 460.5,-91 460.5,-91 86,-91 86,-91 86,-91 86,-80.08 86,-70.35"/>
<polygon fill="black" stroke="black" stroke-width="5" points="460.06,-163.89 460.5,-164.89 460.94,-163.89 460.06,-163.89"/>
</a>
</g>
<text text-anchor="middle" x="315.37" y="-94.6" font-family="Sans-Serif" font-size="13.00">Uses</text>
</g>
<!-- 7f51c2e99a974b5aa81b30e326e7237e&#45;&gt;f703427c3c33477ebf55202046e1ed95 -->
<g id="edge9" class="edge">
<title>7f51c2e99a974b5aa81b30e326e7237e&#45;&gt;f703427c3c33477ebf55202046e1ed95</title>
<g id="a_edge9"><a xlink:title="Dependency">
<path fill="none" stroke="black" stroke-width="5" d="M481.33,-163.85C481.33,-163.85 481.33,-128.11 481.33,-128.11"/>
<polygon fill="black" stroke="black" stroke-width="5" points="480.9,-163.85 481.33,-164.85 481.77,-163.85 480.9,-163.85"/>
</a>
</g>
<text text-anchor="middle" x="465.33" y="-149.58" font-family="Sans-Serif" font-size="13.00">Uses</text>
</g>
<!-- 7f51c2e99a974b5aa81b30e326e7237e&#45;&gt;07125ee630fe4e5a880e192c9a69d83e -->
<g id="edge10" class="edge">
<title>7f51c2e99a974b5aa81b30e326e7237e&#45;&gt;07125ee630fe4e5a880e192c9a69d83e</title>
<g id="a_edge10"><a xlink:title="Dependency">
<path fill="none" stroke="black" stroke-width="5" d="M465.25,-163.85C465.25,-163.85 465.25,-60 465.25,-60 465.25,-60 425.97,-60 402.03,-60"/>
<polygon fill="black" stroke="black" stroke-width="5" points="464.81,-163.85 465.25,-164.85 465.69,-163.85 464.81,-163.85"/>
</a>
</g>
<text text-anchor="middle" x="449.25" y="-83.91" font-family="Sans-Serif" font-size="13.00">Uses</text>
</g>
<!-- 7f51c2e99a974b5aa81b30e326e7237e&#45;&gt;cbb9d1e978fd4b25bf79cd2ad4a6825f -->
<g id="edge13" class="edge">
<title>7f51c2e99a974b5aa81b30e326e7237e&#45;&gt;cbb9d1e978fd4b25bf79cd2ad4a6825f</title>
<g id="a_edge13"><a xlink:title="Dependency">
<path fill="none" stroke="black" stroke-width="5" d="M488.32,-179C488.32,-179 577,-179 577,-179 577,-179 577,-55 577,-55 577,-55 581.97,-55 587.8,-55"/>
<polygon fill="black" stroke="black" stroke-width="5" points="488.32,-178.56 487.32,-179 488.32,-179.44 488.32,-178.56"/>
</a>
</g>
<text text-anchor="middle" x="561" y="-159.54" font-family="Sans-Serif" font-size="13.00">Uses</text>
</g>
<!-- f703427c3c33477ebf55202046e1ed95&#45;&gt;73ad0b352bb74028ae7d961e0644f3de -->
<g id="edge19" class="edge">
<title>f703427c3c33477ebf55202046e1ed95&#45;&gt;73ad0b352bb74028ae7d961e0644f3de</title>
<g id="a_edge19"><a xlink:title="Dependency">
<path fill="none" stroke="black" stroke-width="5" d="M479,-97.96C479,-97.96 479,-88 479,-88 479,-88 92,-88 92,-88 92,-88 92,-78.83 92,-70.23"/>
<polygon fill="black" stroke="black" stroke-width="5" points="478.56,-97.96 479,-98.96 479.44,-97.96 478.56,-97.96"/>
</a>
</g>
<text text-anchor="middle" x="297.6" y="-77.6" font-family="Sans-Serif" font-size="13.00">Uses</text>
</g>
<!-- f703427c3c33477ebf55202046e1ed95&#45;&gt;07125ee630fe4e5a880e192c9a69d83e -->
<g id="edge20" class="edge">
<title>f703427c3c33477ebf55202046e1ed95&#45;&gt;07125ee630fe4e5a880e192c9a69d83e</title>
<g id="a_edge20"><a xlink:title="Dependency">
<path fill="none" stroke="black" stroke-width="5" d="M497,-97.77C497,-97.77 497,-50 497,-50 497,-50 434.1,-50 402.16,-50"/>
<polygon fill="black" stroke="black" stroke-width="5" points="496.56,-97.77 497,-98.77 497.44,-97.77 496.56,-97.77"/>
</a>
</g>
<text text-anchor="middle" x="457.46" y="-53.6" font-family="Sans-Serif" font-size="13.00">Uses</text>
</g>
<!-- f703427c3c33477ebf55202046e1ed95&#45;&gt;cbb9d1e978fd4b25bf79cd2ad4a6825f -->
<g id="edge21" class="edge">
<title>f703427c3c33477ebf55202046e1ed95&#45;&gt;cbb9d1e978fd4b25bf79cd2ad4a6825f</title>
<g id="a_edge21"><a xlink:title="Dependency">
<path fill="none" stroke="black" stroke-width="5" d="M488,-97.75C488,-97.75 488,-84 488,-84 488,-84 606,-84 606,-84 606,-84 606,-77.1 606,-70.08"/>
<polygon fill="black" stroke="black" stroke-width="5" points="487.56,-97.75 488,-98.75 488.44,-97.75 487.56,-97.75"/>
</a>
</g>
<text text-anchor="middle" x="531.08" y="-87.6" font-family="Sans-Serif" font-size="13.00">Uses</text>
</g>
<!-- cdd23859aced4eb39cc939c52786eff7 -->
<g id="node9" class="node">
<title>cdd23859aced4eb39cc939c52786eff7</title>
<path fill="none" stroke="black" d="M334.33,-128C334.33,-128 317.67,-128 317.67,-128 312.83,-128 308,-123.17 308,-118.33 308,-118.33 308,-108.67 308,-108.67 308,-103.83 312.83,-99 317.67,-99 317.67,-99 334.33,-99 334.33,-99 339.17,-99 344,-103.83 344,-108.67 344,-108.67 344,-118.33 344,-118.33 344,-123.17 339.17,-128 334.33,-128"/>
<image xlink:href="/home/codespace/.python/current/lib/python3.12/site-packages/resources/aws/security/identity-and-access-management-iam.png" width="29px" height="29px" preserveAspectRatio="xMinYMin meet" x="311.5" y="-128"/>
<text text-anchor="middle" x="326" y="-127" font-family="Sans-Serif" font-size="20.00" fill="#2d3436">[factory_outlet_frontend_developer1_to_group]</text>
<text text-anchor="middle" x="326" y="-105" font-family="Sans-Serif" font-size="20.00" fill="#2d3436">(aws_iam_user_group_membership)</text>
</g>
<!-- 020854081e9f486781e4c2869553dbdc -->
<g id="node15" class="node">
<title>020854081e9f486781e4c2869553dbdc</title>
<path fill="none" stroke="black" d="M276.33,-70C276.33,-70 259.67,-70 259.67,-70 254.83,-70 250,-65.17 250,-60.33 250,-60.33 250,-50.67 250,-50.67 250,-45.83 254.83,-41 259.67,-41 259.67,-41 276.33,-41 276.33,-41 281.17,-41 286,-45.83 286,-50.67 286,-50.67 286,-60.33 286,-60.33 286,-65.17 281.17,-70 276.33,-70"/>
<image xlink:href="/home/codespace/.python/current/lib/python3.12/site-packages/resources/aws/security/identity-and-access-management-iam.png" width="29px" height="29px" preserveAspectRatio="xMinYMin meet" x="253.5" y="-70"/>
<text text-anchor="middle" x="268" y="-69" font-family="Sans-Serif" font-size="20.00" fill="#2d3436">[factory_outlet_frontend_developer]</text>
<text text-anchor="middle" x="268" y="-47" font-family="Sans-Serif" font-size="20.00" fill="#2d3436">(aws_iam_user)</text>
</g>
<!-- cdd23859aced4eb39cc939c52786eff7&#45;&gt;020854081e9f486781e4c2869553dbdc -->
<g id="edge16" class="edge">
<title>cdd23859aced4eb39cc939c52786eff7&#45;&gt;020854081e9f486781e4c2869553dbdc</title>
<g id="a_edge16"><a xlink:title="Dependency">
<path fill="none" stroke="black" stroke-width="5" d="M306.8,-113C306.8,-113 297,-113 297,-113 297,-113 297,-55 297,-55 297,-55 292.03,-55 286.2,-55"/>
<polygon fill="black" stroke="black" stroke-width="5" points="306.8,-113.44 307.8,-113 306.8,-112.56 306.8,-113.44"/>
</a>
</g>
<text text-anchor="middle" x="281" y="-73.1" font-family="Sans-Serif" font-size="13.00">Uses</text>
</g>
<!-- b665936fe1014b9b9c358122421414a7 -->
<g id="node16" class="node">
<title>b665936fe1014b9b9c358122421414a7</title>
<path fill="none" stroke="black" d="M334.33,-70C334.33,-70 317.67,-70 317.67,-70 312.83,-70 308,-65.17 308,-60.33 308,-60.33 308,-50.67 308,-50.67 308,-45.83 312.83,-41 317.67,-41 317.67,-41 334.33,-41 334.33,-41 339.17,-41 344,-45.83 344,-50.67 344,-50.67 344,-60.33 344,-60.33 344,-65.17 339.17,-70 334.33,-70"/>
<image xlink:href="/home/codespace/.python/current/lib/python3.12/site-packages/resources/aws/security/identity-and-access-management-iam.png" width="29px" height="29px" preserveAspectRatio="xMinYMin meet" x="311.5" y="-70"/>
<text text-anchor="middle" x="326" y="-69" font-family="Sans-Serif" font-size="20.00" fill="#2d3436">[factory_outlet_frontend_developer_group]</text>
<text text-anchor="middle" x="326" y="-47" font-family="Sans-Serif" font-size="20.00" fill="#2d3436">(aws_iam_group)</text>
</g>
<!-- cdd23859aced4eb39cc939c52786eff7&#45;&gt;b665936fe1014b9b9c358122421414a7 -->
<g id="edge17" class="edge">
<title>cdd23859aced4eb39cc939c52786eff7&#45;&gt;b665936fe1014b9b9c358122421414a7</title>
<g id="a_edge17"><a xlink:title="Dependency">
<path fill="none" stroke="black" stroke-width="5" d="M326,-97.86C326,-97.86 326,-70.33 326,-70.33"/>
<polygon fill="black" stroke="black" stroke-width="5" points="325.56,-97.86 326,-98.86 326.44,-97.86 325.56,-97.86"/>
</a>
</g>
<text text-anchor="middle" x="342" y="-73.7" font-family="Sans-Serif" font-size="13.00">Uses</text>
</g>
<!-- ca87a7cc0f30496594f64c3ea746dca5 -->
<g id="node10" class="node">
<title>ca87a7cc0f30496594f64c3ea746dca5</title>
<path fill="none" stroke="black" d="M276.33,-128C276.33,-128 259.67,-128 259.67,-128 254.83,-128 250,-123.17 250,-118.33 250,-118.33 250,-108.67 250,-108.67 250,-103.83 254.83,-99 259.67,-99 259.67,-99 276.33,-99 276.33,-99 281.17,-99 286,-103.83 286,-108.67 286,-108.67 286,-118.33 286,-118.33 286,-123.17 281.17,-128 276.33,-128"/>
<image xlink:href="/home/codespace/.python/current/lib/python3.12/site-packages/resources/aws/security/identity-and-access-management-iam.png" width="29px" height="29px" preserveAspectRatio="xMinYMin meet" x="253.5" y="-128"/>
<text text-anchor="middle" x="268" y="-127" font-family="Sans-Serif" font-size="20.00" fill="#2d3436">[factory_outlet_frontend_developer_login]</text>
<text text-anchor="middle" x="268" y="-105" font-family="Sans-Serif" font-size="20.00" fill="#2d3436">(aws_iam_user_login_profile)</text>
</g>
<!-- ca87a7cc0f30496594f64c3ea746dca5&#45;&gt;020854081e9f486781e4c2869553dbdc -->
<g id="edge18" class="edge">
<title>ca87a7cc0f30496594f64c3ea746dca5&#45;&gt;020854081e9f486781e4c2869553dbdc</title>
<g id="a_edge18"><a xlink:title="Dependency">
<path fill="none" stroke="black" stroke-width="5" d="M268,-97.86C268,-97.86 268,-70.33 268,-70.33"/>
<polygon fill="black" stroke="black" stroke-width="5" points="267.56,-97.86 268,-98.86 268.44,-97.86 267.56,-97.86"/>
</a>
</g>
<text text-anchor="middle" x="252" y="-87.7" font-family="Sans-Serif" font-size="13.00">Uses</text>
</g>
<!-- 69750333b23c47c8b062fd14db823eb6 -->
<g id="node11" class="node">
<title>69750333b23c47c8b062fd14db823eb6</title>
<path fill="none" stroke="black" d="M218.33,-128C218.33,-128 201.67,-128 201.67,-128 196.83,-128 192,-123.17 192,-118.33 192,-118.33 192,-108.67 192,-108.67 192,-103.83 196.83,-99 201.67,-99 201.67,-99 218.33,-99 218.33,-99 223.17,-99 228,-103.83 228,-108.67 228,-108.67 228,-118.33 228,-118.33 228,-123.17 223.17,-128 218.33,-128"/>
<image xlink:href="/home/codespace/.python/current/lib/python3.12/site-packages/resources/aws/security/identity-and-access-management-iam.png" width="29px" height="29px" preserveAspectRatio="xMinYMin meet" x="195.5" y="-128"/>
<text text-anchor="middle" x="210" y="-127" font-family="Sans-Serif" font-size="20.00" fill="#2d3436">[cloudwatch_logs_policy]</text>
<text text-anchor="middle" x="210" y="-105" font-family="Sans-Serif" font-size="20.00" fill="#2d3436">(aws_iam_role_policy)</text>
</g>
<!-- 69750333b23c47c8b062fd14db823eb6&#45;&gt;fed8f1cd44c9437291dbc290471a05a5 -->
<g id="edge14" class="edge">
<title>69750333b23c47c8b062fd14db823eb6&#45;&gt;fed8f1cd44c9437291dbc290471a05a5</title>
<g id="a_edge14"><a xlink:title="Dependency">
<path fill="none" stroke="black" stroke-width="5" d="M210,-97.86C210,-97.86 210,-70.33 210,-70.33"/>
<polygon fill="black" stroke="black" stroke-width="5" points="209.56,-97.86 210,-98.86 210.44,-97.86 209.56,-97.86"/>
</a>
</g>
<text text-anchor="middle" x="210" y="-73.7" font-family="Sans-Serif" font-size="13.00">Uses</text>
</g>
<!-- 00cc8d26dcc24f069f0c363ff4345bbc -->
<g id="node14" class="node">
<title>00cc8d26dcc24f069f0c363ff4345bbc</title>
<path fill="none" stroke="black" d="M392.33,-128C392.33,-128 375.67,-128 375.67,-128 370.83,-128 366,-123.17 366,-118.33 366,-118.33 366,-108.67 366,-108.67 366,-103.83 370.83,-99 375.67,-99 375.67,-99 392.33,-99 392.33,-99 397.17,-99 402,-103.83 402,-108.67 402,-108.67 402,-118.33 402,-118.33 402,-123.17 397.17,-128 392.33,-128"/>
<image xlink:href="/home/codespace/.python/current/lib/python3.12/site-packages/resources/aws/security/identity-and-access-management-iam.png" width="29px" height="29px" preserveAspectRatio="xMinYMin meet" x="369.5" y="-128"/>
<text text-anchor="middle" x="384" y="-127" font-family="Sans-Serif" font-size="20.00" fill="#2d3436">[lambda_sns_permissions]</text>
<text text-anchor="middle" x="384" y="-105" font-family="Sans-Serif" font-size="20.00" fill="#2d3436">(aws_iam_role_policy)</text>
</g>
<!-- 00cc8d26dcc24f069f0c363ff4345bbc&#45;&gt;07125ee630fe4e5a880e192c9a69d83e -->
<g id="edge15" class="edge">
<title>00cc8d26dcc24f069f0c363ff4345bbc&#45;&gt;07125ee630fe4e5a880e192c9a69d83e</title>
<g id="a_edge15"><a xlink:title="Dependency">
<path fill="none" stroke="black" stroke-width="5" d="M390,-97.86C390,-97.86 390,-70.33 390,-70.33"/>
<polygon fill="black" stroke="black" stroke-width="5" points="389.56,-97.86 390,-98.86 390.44,-97.86 389.56,-97.86"/>
</a>
</g>
<text text-anchor="middle" x="406" y="-87.7" font-family="Sans-Serif" font-size="13.00">Uses</text>
</g>
<!-- 8d74b745628840fa9437129205521b72 -->
<g id="node19" class="node">
<title>8d74b745628840fa9437129205521b72</title>
<path fill="none" stroke="black" d="M614.33,-128C614.33,-128 597.67,-128 597.67,-128 592.83,-128 588,-123.17 588,-118.33 588,-118.33 588,-108.67 588,-108.67 588,-103.83 592.83,-99 597.67,-99 597.67,-99 614.33,-99 614.33,-99 619.17,-99 624,-103.83 624,-108.67 624,-108.67 624,-118.33 624,-118.33 624,-123.17 619.17,-128 614.33,-128"/>
<image xlink:href="/home/codespace/.python/current/lib/python3.12/site-packages/resources/aws/storage/simple-storage-service-s3.png" width="29px" height="29px" preserveAspectRatio="xMinYMin meet" x="591.5" y="-128"/>
<text text-anchor="middle" x="606" y="-127" font-family="Sans-Serif" font-size="20.00" fill="#2d3436">[lambda_code]</text>
<text text-anchor="middle" x="606" y="-105" font-family="Sans-Serif" font-size="20.00" fill="#2d3436">(aws_s3_object)</text>
</g>
<!-- 8d74b745628840fa9437129205521b72&#45;&gt;cbb9d1e978fd4b25bf79cd2ad4a6825f -->
<g id="edge22" class="edge">
<title>8d74b745628840fa9437129205521b72&#45;&gt;cbb9d1e978fd4b25bf79cd2ad4a6825f</title>
<g id="a_edge22"><a xlink:title="Dependency">
<path fill="none" stroke="black" stroke-width="5" d="M615,-97.86C615,-97.86 615,-70.33 615,-70.33"/>
<polygon fill="black" stroke="black" stroke-width="5" points="614.56,-97.86 615,-98.86 615.44,-97.86 614.56,-97.86"/>
</a>
</g>
<text text-anchor="middle" x="599" y="-87.7" font-family="Sans-Serif" font-size="13.00">Uses</text>
</g>
<!-- abb2da9d89694f438317418a9082d720 -->
<g id="node20" class="node">
<title>abb2da9d89694f438317418a9082d720</title>
<path fill="none" stroke="black" d="M556.33,-128C556.33,-128 539.67,-128 539.67,-128 534.83,-128 530,-123.17 530,-118.33 530,-118.33 530,-108.67 530,-108.67 530,-103.83 534.83,-99 539.67,-99 539.67,-99 556.33,-99 556.33,-99 561.17,-99 566,-103.83 566,-108.67 566,-108.67 566,-118.33 566,-118.33 566,-123.17 561.17,-128 556.33,-128"/>
<image xlink:href="/home/codespace/.python/current/lib/python3.12/site-packages/resources/aws/storage/simple-storage-service-s3.png" width="29px" height="29px" preserveAspectRatio="xMinYMin meet" x="533.5" y="-128"/>
<text text-anchor="middle" x="548" y="-127" font-family="Sans-Serif" font-size="20.00" fill="#2d3436">[cloudtrail_bucket_policy]</text>
<text text-anchor="middle" x="548" y="-105" font-family="Sans-Serif" font-size="20.00" fill="#2d3436">(aws_s3_bucket_policy)</text>
</g>
<!-- abb2da9d89694f438317418a9082d720&#45;&gt;8f7bda79a8534ead98c57d63ca88b872 -->
<g id="edge23" class="edge">
<title>abb2da9d89694f438317418a9082d720&#45;&gt;8f7bda79a8534ead98c57d63ca88b872</title>
<g id="a_edge23"><a xlink:title="Dependency">
<path fill="none" stroke="black" stroke-width="5" d="M554,-97.86C554,-97.86 554,-70.33 554,-70.33"/>
<polygon fill="black" stroke="black" stroke-width="5" points="553.56,-97.86 554,-98.86 554.44,-97.86 553.56,-97.86"/>
</a>
</g>
<text text-anchor="middle" x="570" y="-73.7" font-family="Sans-Serif" font-size="13.00">Uses</text>
</g>
</g>
</svg>
